<?xml version="1.0" encoding="iso-8859-1"?>
<!-- Generator: Adobe Illustrator 19.0.0, SVG Export Plug-In . SVG Version: 6.00 Build 0)  -->
<svg xmlns="http://www.w3.org/2000/svg" xmlns:xlink="http://www.w3.org/1999/xlink" version="1.1" id="Layer_1" x="0px" y="0px" viewBox="0 0 512.009 512.009" style="enable-background:new 0 0 512.009 512.009;" xml:space="preserve" width="512px" height="512px">
<g>
	<g>
		<g>
			<path d="M273.071,409.6c4.71,0,8.533-3.814,8.533-8.533c0-4.71-3.823-8.533-8.533-8.533h-256V165.675l2.5,2.5     c3.336,3.336,8.73,3.336,12.066,0l11.034-11.034l11.034,11.034c3.337,3.336,8.73,3.336,12.066,0l11.034-11.034l11.034,11.034     c3.337,3.336,8.73,3.336,12.066,0l11.034-11.034l11.034,11.034c3.337,3.336,8.73,3.336,12.066,0l11.034-11.034l11.034,11.034     c3.337,3.336,8.73,3.336,12.066,0l11.034-11.034l11.034,11.034c3.337,3.336,8.73,3.336,12.066,0l11.034-11.034l11.034,11.034     c3.337,3.336,8.73,3.336,12.066,0l11.034-11.034l11.034,11.034c3.337,3.336,8.73,3.336,12.066,0c3.337-3.337,3.337-8.73,0-12.066     l-17.067-17.067c-3.337-3.337-8.73-3.337-12.066,0l-11.034,11.034l-11.034-11.034c-3.336-3.337-8.73-3.337-12.066,0     l-11.034,11.034l-11.034-11.034c-3.337-3.337-8.73-3.337-12.066,0l-11.034,11.034l-11.034-11.034     c-3.337-3.337-8.73-3.337-12.066,0l-11.034,11.034l-11.034-11.034c-3.337-3.337-8.73-3.337-12.066,0l-11.034,11.034     l-11.034-11.034c-3.337-3.337-8.73-3.337-12.066,0l-11.034,11.034l-11.034-11.034c-3.336-3.337-8.73-3.337-12.066,0     l-11.034,11.034l-11.034-11.034c-2.449-2.441-6.11-3.174-9.301-1.852c-3.183,1.323-5.265,4.437-5.265,7.885v324.258     C0.004,492.86,19.145,512,42.671,512h230.4c4.71,0,8.533-3.814,8.533-8.533c0-4.71-3.823-8.533-8.533-8.533h-230.4     c-14.114,0-25.6-11.477-25.6-25.6V409.6H273.071z" fill="#FFFFFF"/>
			<path d="M17.523,29.594c1.502,11.964,6.827,59.716-0.196,87.808c-1.143,4.574,1.638,9.207,6.204,10.351     c0.7,0.179,1.391,0.256,2.082,0.256c3.823,0,7.296-2.586,8.269-6.46c4.361-17.425,4.523-40.576,3.55-59.964     c13.474,30.319,13.773,57.54,13.773,57.899c0.017,4.71,3.831,8.516,8.533,8.516h0.009c4.71,0,8.525-3.814,8.525-8.525     c0-1.741-0.333-34.534-17.715-70.093c34.005,27.401,34.773,68.028,34.782,70.11c0.009,4.71,3.831,8.516,8.533,8.516     c4.71,0,8.533-3.823,8.533-8.533c0-0.734-0.93-73.062-71.876-101.009l-7.424-7.424c-3.337-3.337-8.73-3.337-12.066,0     c-3.337,3.336-3.337,8.73,0,12.066L17.523,29.594z" fill="#FFFFFF"/>
			<path d="M290.138,51.209c0-9.404-7.654-17.067-17.067-17.075H136.529c-9.404,0.009-17.058,7.671-17.058,17.075v68.267     c0,4.719,3.823,8.533,8.533,8.533c4.71,0,8.533-3.814,8.533-8.533V51.2l102.4,0.009v68.267c0,4.719,3.823,8.533,8.533,8.533     s8.533-3.814,8.533-8.533V51.209h17.067v59.733c0,4.71,3.823,8.533,8.533,8.533s8.533-3.823,8.533-8.533V51.209z" fill="#FFFFFF"/>
			<path d="M358.404,324.275h68.267c4.71,0,8.533-3.823,8.533-8.533s-3.823-8.533-8.533-8.533h-68.267     c-4.71,0-8.533,3.823-8.533,8.533S353.694,324.275,358.404,324.275z" fill="#FFFFFF"/>
			<path d="M506.842,251.29c2.295-4.599,5.163-10.334,5.163-20.881v-68.267c0-24.678-14.524-46.669-38.852-58.837l-29.414-14.703     V68.267c9.412,0,17.067-7.646,17.067-17.067V17.067C460.804,7.654,453.15,0,443.738,0h-85.333     c-9.412,0-17.067,7.654-17.067,17.067V51.2c0,9.421,7.654,17.067,17.067,17.067v20.335l-29.414,14.703     c-24.329,12.169-38.852,34.159-38.852,58.837v68.267c0,10.547,2.867,16.282,5.171,20.881c1.954,3.908,3.362,6.733,3.362,13.252     v136.533c0,6.519-1.408,9.344-3.362,13.252c-2.304,4.599-5.171,10.334-5.171,20.881v34.133c0,23.526,19.14,42.667,42.667,42.667     h8.533c10.325,0,18.236-6.357,25.6-13.534c7.364,7.177,15.275,13.534,25.6,13.534h17.067c10.325,0,18.236-6.357,25.6-13.534     c7.364,7.177,15.275,13.534,25.6,13.534h8.533c23.526,0,42.667-19.14,42.667-42.667v-34.133c0-10.547-2.867-16.282-5.163-20.881     c-1.954-3.908-3.371-6.733-3.371-13.252V264.542C503.471,258.022,504.888,255.198,506.842,251.29z M358.404,17.067h85.333     l0.009,34.133h-17.075v-8.525c0-4.71-3.823-8.533-8.533-8.533s-8.533,3.823-8.533,8.533V51.2h-17.067v-8.525     c0-4.71-3.823-8.533-8.533-8.533s-8.533,3.823-8.533,8.533V51.2h-17.067V17.067z M494.938,230.409     c0,6.519-1.408,9.344-3.362,13.252c-2.304,4.599-5.171,10.334-5.171,20.881v127.992H341.338c-4.71,0-8.533,3.823-8.533,8.533     c0,4.719,3.823,8.533,8.533,8.533h145.877c0.998,5.393,2.782,9.207,4.361,12.356c1.954,3.908,3.362,6.733,3.362,13.252v34.133     c0,14.114-11.486,25.6-25.6,25.6h-8.533c-5.12,0-11.136-6.067-17.51-12.493l-2.057-2.074c-1.596-1.604-3.772-2.5-6.033-2.5     c-2.261,0-4.429,0.896-6.033,2.5l-2.057,2.074c-6.374,6.426-12.39,12.493-17.51,12.493h-17.067     c-5.12,0-11.136-6.067-17.51-12.493l-2.057-2.074c-3.2-3.2-8.866-3.2-12.066,0l-2.057,2.074     c-6.374,6.426-12.39,12.493-17.51,12.493h-8.533c-14.114,0-25.6-11.486-25.6-25.6v-34.133c0-6.519,1.417-9.344,3.371-13.252     c2.295-4.599,5.163-10.334,5.163-20.881V273.067h145.067c4.71,0,8.533-3.814,8.533-8.533c0-4.71-3.823-8.533-8.533-8.533H314.927     c-0.998-5.385-2.782-9.19-4.352-12.339c-1.954-3.908-3.371-6.733-3.371-13.252v-68.267c0-26.044,20.574-39.142,29.414-43.563     l34.133-17.067c2.893-1.451,4.719-4.403,4.719-7.637v-25.6h51.2v25.6c0,3.234,1.826,6.187,4.719,7.637l34.133,17.067     c8.841,4.42,29.414,17.519,29.414,43.563V230.409z" fill="#FFFFFF"/>
			<path d="M443.738,341.342h-85.333c-4.71,0-8.533,3.823-8.533,8.533s3.823,8.533,8.533,8.533h85.333     c4.71,0,8.533-3.823,8.533-8.533S448.448,341.342,443.738,341.342z" fill="#FFFFFF"/>
		</g>
	</g>
</g>
<g>
</g>
<g>
</g>
<g>
</g>
<g>
</g>
<g>
</g>
<g>
</g>
<g>
</g>
<g>
</g>
<g>
</g>
<g>
</g>
<g>
</g>
<g>
</g>
<g>
</g>
<g>
</g>
<g>
</g>
</svg>
