<?xml version="1.0" encoding="iso-8859-1"?>
<!-- Generator: Adobe Illustrator 19.0.0, SVG Export Plug-In . SVG Version: 6.00 Build 0)  -->
<svg xmlns="http://www.w3.org/2000/svg" xmlns:xlink="http://www.w3.org/1999/xlink" version="1.1" id="Layer_1" x="0px" y="0px" viewBox="0 0 512.001 512.001" style="enable-background:new 0 0 512.001 512.001;" xml:space="preserve" width="512px" height="512px">
<g>
	<g>
		<g>
			<path d="M384.586,39.397c13.94-11.277,31.487-17.485,49.417-17.485h33.263c6.05,0,10.956-4.905,10.956-10.956     C478.222,4.905,473.316,0,467.266,0h-33.263c-22.973,0-45.451,7.969-63.295,22.442c-0.054,0.043-0.106,0.087-0.159,0.131     L197.085,168.741c-2.471,2.082-3.897,5.147-3.897,8.378v33.598h-54.061l-21.054-29.565c-6.377-8.953-15.451-15.46-25.678-18.757     v-44.627c0-6.051-4.906-10.956-10.956-10.956h-52.04c-6.05,0-10.956,4.905-10.956,10.956v53.136     c0,6.051,4.906,10.956,10.956,10.956h47.543c9.227,0,17.93,4.487,23.284,12.004l12.002,16.854H85.274     c-4.025,0-7.726,2.206-9.639,5.747L2.231,352.316c-2.876,5.323-0.892,11.97,4.431,14.847c1.656,0.895,3.44,1.319,5.198,1.319     c3.896,0,7.667-2.083,9.649-5.75l70.298-130.104h54.819v34.686c-17.949,9.96-30.128,29.102-30.128,51.043v1.917H97.325     c-6.05,0-10.956,4.905-10.956,10.956v169.815c0,6.051,4.906,10.956,10.956,10.956h213.638c6.05,0,10.956-4.905,10.956-10.956     V331.231c0-6.051-4.906-10.956-10.956-10.956H291.79v-1.917c0-21.941-12.18-41.083-30.128-51.043v-45.642     c0-6.051-4.906-10.956-10.956-10.956H215.1v-28.503L384.586,39.397z M70.483,159.946H40.355v-31.224h30.128V159.946z      M300.007,342.185v95.315h-78.882c-6.05,0-10.956,4.905-10.956,10.956s4.906,10.956,10.956,10.956h78.882v30.676H108.281v-96.046     h78.517c6.05,0,10.956-4.905,10.956-10.956c0-6.051-4.906-10.956-10.956-10.956h-78.517v-29.945H300.007z M269.879,318.357v1.917     H138.409v-1.917c0-20.086,16.342-36.428,36.428-36.428h58.613C253.537,281.929,269.879,298.27,269.879,318.357z M239.75,232.629     v27.735c-2.071-0.224-69.142-0.224-71.213,0v-27.735H239.75z" fill="#FFFFFF"/>
			<path d="M475.551,151.928c-2.081-2.404-5.104-3.786-8.285-3.786s-6.203,1.382-8.285,3.786     c-5.935,6.857-35.538,42.134-35.538,63.297c0,24.164,19.659,43.823,43.823,43.823s43.823-19.659,43.823-43.823     C511.089,194.062,481.485,158.785,475.551,151.928z M467.266,237.137c-12.082,0-21.912-9.83-21.912-21.912     c0-7.022,10.286-23.772,21.912-38.81c11.626,15.039,21.912,31.788,21.912,38.81C489.177,227.307,479.348,237.137,467.266,237.137     z" fill="#FFFFFF"/>
			<path d="M229.89,394.043h2.191c6.05,0,10.956-4.905,10.956-10.956s-4.905-10.956-10.956-10.956h-2.191     c-6.05,0-10.956,4.905-10.956,10.956S223.84,394.043,229.89,394.043z" fill="#FFFFFF"/>
		</g>
	</g>
</g>
<g>
</g>
<g>
</g>
<g>
</g>
<g>
</g>
<g>
</g>
<g>
</g>
<g>
</g>
<g>
</g>
<g>
</g>
<g>
</g>
<g>
</g>
<g>
</g>
<g>
</g>
<g>
</g>
<g>
</g>
</svg>
